<svg viewBox="0 0 1200 600" xmlns="http://www.w3.org/2000/svg" role="img" aria-label="revue">
  <defs>
    <linearGradient id="bg" x1="0" y1="0" x2="1" y2="1">
      <stop offset="0" stop-color="#F4EFE3"/>
      <stop offset="1" stop-color="#E9F1EA"/>
    </linearGradient>
    <linearGradient id="body" x1="0" y1="0" x2="0" y2="1">
      <stop offset="0" stop-color="#EE9E80"/>
      <stop offset="1" stop-color="#D66C48"/>
    </linearGradient>
    <clipPath id="lens"><circle cx="705" cy="205" r="33"/></clipPath>
    <g id="star">
      <path d="M0,-1 C0,-.25 .25,0 1,0 C.25,0 0,.25 0,1 C0,.25 -.25,0 -1,0 C-.25,0 0,-.25 0,-1 Z"/>
    </g>
  </defs>

  <rect width="1200" height="600" fill="url(#bg)"/>

  <!-- ambient background -->
  <g fill="#D8C4A9" opacity="0.75">
    <use href="#star" transform="translate(258,158) scale(20)"/>
    <use href="#star" transform="translate(198,332) scale(13)"/>
    <use href="#star" transform="translate(332,472) scale(11)"/>
    <use href="#star" transform="translate(738,150) scale(14)"/>
    <use href="#star" transform="translate(762,360) scale(12)"/>
    <use href="#star" transform="translate(1042,332) scale(16)"/>
    <use href="#star" transform="translate(152,432) scale(10)"/>
  </g>
  <g fill="none" stroke="#C6D6C2" stroke-width="3" opacity="0.7">
    <polygon points="615,88 636,100 636,124 615,136 594,124 594,100"/>
    <polygon points="1055,152 1081,167 1081,197 1055,212 1029,197 1029,167"/>
    <polygon points="182,222 200,232 200,254 182,264 164,254 164,232"/>
  </g>
  <g stroke="#B4D0B9" stroke-width="3" fill="#B4D0B9">
    <g opacity="0.8">
      <polyline points="978,402 1035,402 1058,379" fill="none"/>
      <circle cx="978" cy="402" r="5"/><circle cx="1058" cy="379" r="5"/>
      <polyline points="954,452 1006,452 1028,472" fill="none"/>
      <circle cx="954" cy="452" r="5"/><circle cx="1028" cy="472" r="5"/>
      <polyline points="150,300 120,300 102,282" fill="none"/>
      <circle cx="150" cy="300" r="5"/><circle cx="102" cy="282" r="5"/>
    </g>
  </g>
  <g opacity="0.85">
    <circle cx="250" cy="214" r="6" fill="#A9D3B4"/>
    <circle cx="762" cy="300" r="7" fill="#EC9578"/>
    <circle cx="905" cy="300" r="6" fill="#B49BDC"/>
    <circle cx="185" cy="376" r="5" fill="#EC9578"/>
    <circle cx="1060" cy="456" r="6" fill="#A9D3B4"/>
    <circle cx="700" cy="472" r="6" fill="#B49BDC"/>
    <circle cx="330" cy="150" r="5" fill="#A9D3B4"/>
  </g>

  <!-- platform -->
  <ellipse cx="470" cy="500" rx="86" ry="13" fill="#6B4A38" opacity="0.10"/>
  <rect x="255" y="486" width="430" height="40" rx="20" fill="#F5EEE1" stroke="#E6D8C3" stroke-width="3"/>
  <circle cx="300" cy="506" r="5" fill="#B49BDC"/>
  <circle cx="330" cy="510" r="4" fill="#A9D3B4"/>
  <circle cx="632" cy="508" r="5" fill="#EC9578"/>
  <circle cx="602" cy="511" r="4" fill="#A9D3B4"/>

  <!-- legs (behind body) -->
  <g stroke-linecap="round" fill="none">
    <path d="M440,470 L437,498" stroke="#6B4A38" stroke-width="28"/>
    <path d="M500,470 L505,498" stroke="#6B4A38" stroke-width="28"/>
    <path d="M440,470 L437,498" stroke="#DE7A55" stroke-width="19"/>
    <path d="M500,470 L505,498" stroke="#DE7A55" stroke-width="19"/>
  </g>

  <!-- arms (behind body) -->
  <g stroke-linecap="round" fill="none">
    <path d="M352,366 Q322,392 302,426" stroke="#6B4A38" stroke-width="27"/>
    <path d="M588,318 Q628,300 660,258" stroke="#6B4A38" stroke-width="27"/>
    <path d="M352,366 Q322,392 302,426" stroke="#DE7A55" stroke-width="18"/>
    <path d="M588,318 Q628,300 660,258" stroke="#DE7A55" stroke-width="18"/>
  </g>

  <!-- side ears -->
  <circle cx="348" cy="342" r="15" fill="#DE7A55" stroke="#6B4A38" stroke-width="5"/>
  <circle cx="592" cy="342" r="15" fill="#DE7A55" stroke="#6B4A38" stroke-width="5"/>

  <!-- body -->
  <rect x="345" y="212" width="250" height="268" rx="118" fill="url(#body)" stroke="#6B4A38" stroke-width="6"/>

  <!-- face plate -->
  <rect x="372" y="256" width="196" height="176" rx="74" fill="#F7E6D9" stroke="#6B4A38" stroke-width="3.5"/>

  <!-- eyes -->
  <ellipse cx="438" cy="330" rx="16" ry="22" fill="#48332A"/>
  <ellipse cx="502" cy="330" rx="16" ry="22" fill="#48332A"/>
  <circle cx="433" cy="322" r="7" fill="#ffffff"/>
  <circle cx="497" cy="322" r="7" fill="#ffffff"/>
  <circle cx="444" cy="336" r="3.2" fill="#ffffff"/>
  <circle cx="508" cy="336" r="3.2" fill="#ffffff"/>

  <!-- blush + mouth -->
  <ellipse cx="436" cy="370" rx="14" ry="8" fill="#EF9E7E" opacity="0.55"/>
  <ellipse cx="504" cy="370" rx="14" ry="8" fill="#EF9E7E" opacity="0.55"/>
  <path d="M457,372 Q470,391 483,372 Q470,381 457,372 Z" fill="#48332A"/>

  <!-- antenna -->
  <path d="M470,214 Q463,186 474,168" stroke="#6B4A38" stroke-width="6" fill="none" stroke-linecap="round"/>
  <circle cx="476" cy="160" r="11" fill="#DE7A55" stroke="#6B4A38" stroke-width="5"/>
  <g stroke="#B49BDC" stroke-width="5" stroke-linecap="round">
    <line x1="466" y1="132" x2="471" y2="143"/>
    <line x1="477" y1="127" x2="478" y2="140"/>
    <line x1="488" y1="133" x2="482" y2="143"/>
  </g>

  <!-- claws -->
  <g transform="translate(300,430) rotate(202)">
    <path d="M0,0 L24.5,-11.4 A27,27 0 1 0 24.5,11.4 Z" fill="#DE7A55" stroke="#6B4A38" stroke-width="5" stroke-linejoin="round"/>
  </g>
  <g transform="translate(664,254) rotate(-52)">
    <path d="M0,0 L24.5,-11.4 A27,27 0 1 0 24.5,11.4 Z" fill="#DE7A55" stroke="#6B4A38" stroke-width="5" stroke-linejoin="round"/>
  </g>

  <!-- magnifier -->
  <line x1="681" y1="230" x2="668" y2="245" stroke="#6B4A38" stroke-width="13" stroke-linecap="round"/>
  <circle cx="705" cy="205" r="33" fill="#FBFAF6"/>
  <g clip-path="url(#lens)">
    <rect x="686" y="196" width="34" height="7" rx="3.5" fill="#8FBE86"/>
    <rect x="686" y="210" width="26" height="7" rx="3.5" fill="#E7A491"/>
  </g>
  <circle cx="705" cy="205" r="33" fill="none" stroke="#6B4A38" stroke-width="8"/>
  <circle cx="694" cy="194" r="6" fill="#ffffff" opacity="0.8"/>

  <!-- diff bubble under review -->
  <path d="M838,249 L826,276 L864,250 Z" fill="#FCF7ED" stroke="#6B4A38" stroke-width="4" stroke-linejoin="round"/>
  <rect x="792" y="118" width="214" height="132" rx="30" fill="#FCF7ED" stroke="#6B4A38" stroke-width="4"/>
  <rect x="826" y="142" width="150" height="13" rx="6.5" fill="#D9CDB8"/>
  <rect x="814" y="170" width="17" height="17" rx="4" fill="#8FBE86"/>
  <rect x="820" y="177" width="6" height="3" rx="1.5" fill="#ffffff"/>
  <rect x="821.5" y="173.5" width="3" height="10" rx="1.5" fill="#ffffff"/>
  <rect x="840" y="171" width="140" height="14" rx="7" fill="#9CC98A"/>
  <rect x="814" y="200" width="17" height="17" rx="4" fill="#E7A491"/>
  <rect x="820" y="207" width="6" height="3" rx="1.5" fill="#ffffff"/>
  <rect x="840" y="201" width="108" height="14" rx="7" fill="#EDB1A1"/>
</svg>
